<svg xmlns="http://www.w3.org/2000/svg" version="1.1" xmlns:xlink="http://www.w3.org/1999/xlink" xmlns:svgjs="http://svgjs.dev/svgjs" viewBox="0 0 1422 800"><defs><linearGradient x1="50%" y1="0%" x2="50%" y2="100%" id="oooscillate-grad"><stop stop-color="hsl(230, 55%, 50%)" stop-opacity="1" offset="0%"></stop><stop stop-color="hsl(172, 100%, 50%)" stop-opacity="1" offset="100%"></stop></linearGradient></defs><g stroke-width="3" stroke="url(#oooscillate-grad)" fill="none" stroke-linecap="round"><path d="M 0 910 Q 355.5 20 711 400 Q 1066.5 780 1422 910" opacity="0.05"></path><path d="M 0 884 Q 355.5 20 711 400 Q 1066.5 780 1422 884" opacity="0.08"></path><path d="M 0 858 Q 355.5 20 711 400 Q 1066.5 780 1422 858" opacity="0.11"></path><path d="M 0 832 Q 355.5 20 711 400 Q 1066.5 780 1422 832" opacity="0.13"></path><path d="M 0 806 Q 355.5 20 711 400 Q 1066.5 780 1422 806" opacity="0.16"></path><path d="M 0 780 Q 355.5 20 711 400 Q 1066.5 780 1422 780" opacity="0.19"></path><path d="M 0 754 Q 355.5 20 711 400 Q 1066.5 780 1422 754" opacity="0.22"></path><path d="M 0 728 Q 355.5 20 711 400 Q 1066.5 780 1422 728" opacity="0.25"></path><path d="M 0 702 Q 355.5 20 711 400 Q 1066.5 780 1422 702" opacity="0.27"></path><path d="M 0 676 Q 355.5 20 711 400 Q 1066.5 780 1422 676" opacity="0.30"></path><path d="M 0 650 Q 355.5 20 711 400 Q 1066.5 780 1422 650" opacity="0.33"></path><path d="M 0 624 Q 355.5 20 711 400 Q 1066.5 780 1422 624" opacity="0.36"></path><path d="M 0 598 Q 355.5 20 711 400 Q 1066.5 780 1422 598" opacity="0.39"></path><path d="M 0 572 Q 355.5 20 711 400 Q 1066.5 780 1422 572" opacity="0.41"></path><path d="M 0 546 Q 355.5 20 711 400 Q 1066.5 780 1422 546" opacity="0.44"></path><path d="M 0 520 Q 355.5 20 711 400 Q 1066.5 780 1422 520" opacity="0.47"></path><path d="M 0 494 Q 355.5 20 711 400 Q 1066.5 780 1422 494" opacity="0.50"></path><path d="M 0 468 Q 355.5 20 711 400 Q 1066.5 780 1422 468" opacity="0.53"></path><path d="M 0 442 Q 355.5 20 711 400 Q 1066.5 780 1422 442" opacity="0.55"></path><path d="M 0 416 Q 355.5 20 711 400 Q 1066.5 780 1422 416" opacity="0.58"></path><path d="M 0 390 Q 355.5 20 711 400 Q 1066.5 780 1422 390" opacity="0.61"></path><path d="M 0 364 Q 355.5 20 711 400 Q 1066.5 780 1422 364" opacity="0.64"></path><path d="M 0 338 Q 355.5 20 711 400 Q 1066.5 780 1422 338" opacity="0.66"></path><path d="M 0 312 Q 355.5 20 711 400 Q 1066.5 780 1422 312" opacity="0.69"></path><path d="M 0 286 Q 355.5 20 711 400 Q 1066.5 780 1422 286" opacity="0.72"></path><path d="M 0 260 Q 355.5 20 711 400 Q 1066.5 780 1422 260" opacity="0.75"></path><path d="M 0 234 Q 355.5 20 711 400 Q 1066.5 780 1422 234" opacity="0.78"></path><path d="M 0 208 Q 355.5 20 711 400 Q 1066.5 780 1422 208" opacity="0.80"></path><path d="M 0 182 Q 355.5 20 711 400 Q 1066.5 780 1422 182" opacity="0.83"></path><path d="M 0 156 Q 355.5 20 711 400 Q 1066.5 780 1422 156" opacity="0.86"></path><path d="M 0 130 Q 355.5 20 711 400 Q 1066.5 780 1422 130" opacity="0.89"></path><path d="M 0 104 Q 355.5 20 711 400 Q 1066.5 780 1422 104" opacity="0.92"></path><path d="M 0 78 Q 355.5 20 711 400 Q 1066.5 780 1422 78" opacity="0.94"></path><path d="M 0 52 Q 355.5 20 711 400 Q 1066.5 780 1422 52" opacity="0.97"></path></g></svg>