<svg xmlns="http://www.w3.org/2000/svg" version="1.1" xmlns:xlink="http://www.w3.org/1999/xlink" xmlns:svgjs="http://svgjs.dev/svgjs" viewBox="0 0 800 800" opacity="0.87"><defs><linearGradient x1="50%" y1="0%" x2="50%" y2="100%" id="uundulate-grad"><stop stop-color="hsl(239, 64%, 63%)" stop-opacity="1" offset="45%"></stop><stop stop-color="hsl(184, 82%, 53%)" stop-opacity="1" offset="100%"></stop></linearGradient></defs><g stroke-width="2" stroke="url(#uundulate-grad)" fill="none"><path d="M799.9990210626347 394.2526111082541C800.4991347576527 466.61501633111914 604.4170182416386 535.4318509504535 500.4188376386794 572.765801294358C396.42065703572007 610.0997516382624 405.06146871158785 608.9179814969334 300.80775416843096 573.4555727589961C196.55403962527396 537.9931640210589 0.499135251601615 474.6212466619163 0.0010078315265218407 402.5462393522581C-0.4971195885485713 330.47123204259987 194.66314170393252 264.3955341575638 298.4167425520711 227.49553767263603C402.17034340020973 190.5955411877083 393.5219838795588 190.68519925885158 498.01829190259275 225.42625622460525C602.5145999256267 260.167313190359 799.4989073676165 321.89020588538904 799.9990210626347 394.2526111082541C800.4991347576527 466.61501633111914 604.4170182416386 535.4318509504535 500.4188376386794 572.765801294358 "></path><path d="M783.998999184973 394.48250849497856C784.4791083321902 463.95041750892904 596.2402764768169 530.01457874349 496.402023097976 565.8551710736383C396.56376971913505 601.6957634037867 404.8589489279682 600.5612640681109 304.77538296653745 566.517351679691C204.6918170051067 532.4734392912712 16.479108806381305 471.6363986264944 16.000906483109247 402.4443916092225C15.522704159837133 333.25238459195054 202.87655500061896 269.8197146223159 302.4800118148321 234.39571799678527C402.0834686290452 198.97172137125466 393.7810434892201 199.05779311955217 494.09749919133276 232.40920780667574C594.4139548934454 265.7606224937993 783.5188900377557 325.01459948102814 783.998999184973 394.48250849497856C784.4791083321902 463.95041750892904 596.2402764768169 530.01457874349 496.402023097976 565.8551710736383 "></path><path d="M767.999129895202 394.71240588170315C768.4592344946186 461.28581868673893 588.0636872998857 524.5973065365265 492.3853611451632 558.9445408529186C396.70703499044066 593.2917751693108 404.6565817322389 592.2045466392881 308.74316435253456 559.5791306003858C212.8297469728302 526.9537145614835 32.45923494905162 468.65155059107235 32.00095772258254 402.3425438661868C31.542680496113462 336.0335371413013 211.09012088519603 275.2438950870681 306.5434336654836 241.29589832093455C401.9967464457711 207.347901554801 394.04025568677207 207.43038698025282 490.1768590679634 239.39215938874622C586.3134624491547 271.3539317972396 767.5390252957854 328.13899307666725 767.999129895202 394.71240588170315C768.4592344946186 461.28581868673893 588.0636872998857 524.5973065365265 492.3853611451632 558.9445408529186 "></path><path d="M751.9991385351186 394.9423032684276C752.4392385867341 458.62121986454895 579.886976052642 519.1800343295631 488.3685771220379 552.0339106321991C396.85017819143377 584.887786934835 404.4540924661974 583.8478292104655 312.7108236682193 552.6409095210806C220.9675548702411 521.4339898316958 48.439239021409435 465.6667025556503 48.000886891743335 402.2406961231511C47.56253476207729 338.81468969065196 219.30356469946065 280.6680755518202 310.60673344582256 248.1960786450838C401.90990219218463 215.72408173834737 394.29934581401176 215.80298084095347 486.25609687428164 246.3751109708167C578.2128479345515 276.94724110067995 751.5590384835027 331.2633866723064 751.9991385351186 394.9423032684276C752.4392385867341 458.62121986454895 579.886976052642 519.1800343295631 488.3685771220379 552.0339106321991 "></path><path d="M735.999147175035 395.1722006551522C736.4192426788501 455.95662104235885 571.7102648053983 513.7627621225997 484.3517930989126 545.1232804114795C396.99332139242676 576.4837987003592 404.2516032001556 575.4911117816429 316.6784829839039 545.7026884417755C229.10536276765203 515.9142651019082 64.41924309376725 462.6818545202284 64.00081606090419 402.1388483801155C63.58238902804112 341.59584224000264 227.51700851372522 286.0922560165724 314.67003322616165 255.09625896923302C401.82305793859814 224.10026192189372 394.5584359412512 224.17557470165406 482.3353346805998 253.3580625528872C570.1122334199483 282.54055040412027 735.5790516712199 334.3877802679455 735.999147175035 395.1722006551522C736.4192426788501 455.95662104235885 571.7102648053983 513.7627621225997 484.3517930989126 545.1232804114795 "></path><path d="M719.9991863325296 395.4020980418767C720.3992772885439 453.29202222016875 563.5335840757328 508.3454899156362 480.3350395933654 538.2126501907599C397.136495110998 568.0798104658834 404.0491444516922 567.1343943528202 320.64617281716664 538.7644673624704C237.2432011826411 510.39454037212045 80.39927768370319 459.6970064848065 80.0007757476431 402.0370006370799C79.60227381158302 344.3769947893534 235.7304828455679 291.5164364813245 318.73336352407887 261.99643929338225C401.73624420258966 232.47644210544007 394.8175565860688 232.5481685623547 478.41460300449603 260.3410141349577C562.0116494229233 288.13385970756065 719.5990953765153 337.5121738635846 719.9991863325296 395.4020980418767C720.3992772885439 453.29202222016875 563.5335840757328 508.3454899156362 480.3350395933654 538.2126501907599 "></path><path d="M703.9992254900242 395.63199542860116C704.3793118982378 450.62742339797865 555.3569033460673 502.9282177086727 476.31828608781825 531.3020199700402C397.2796688295691 559.6758222314077 403.8466857032287 558.7776769239977 324.6138626504294 531.8262462831652C245.3810395976301 504.8748156423328 96.37931227363913 456.71215844938445 96.00073543438202 401.9351528940442C95.62215859512497 347.158147338704 243.9439571774106 296.9406169460766 322.796693821996 268.89661961753154C401.6494304665814 240.85262228898642 395.0766772308865 240.9207624230553 474.4938713283923 267.32396571702816C553.9110654258982 293.72716901100097 703.6191390818105 340.6365674592238 703.9992254900242 395.63199542860116C704.3793118982378 450.62742339797865 555.3569033460673 502.9282177086727 476.31828608781825 531.3020199700402 "></path><path d="M687.9992951650969 395.8618622977476C688.35937702551 447.9627940582104 547.1802531339799 497.5109149841312 472.3015630998491 524.3913592317424C397.4228730657185 551.2718034793536 403.64425747234327 550.4209289775968 328.58158300127025 524.8879946862819C253.51890853019728 499.35506039496704 112.3593773811532 453.7272798963844 112.00072563869912 401.8332746334305C111.64207389624505 349.9392693704766 252.15746202683147 302.36476689325065 326.8600546374912 275.79676942410265C401.56264724815105 249.22877195495465 395.3358283932823 249.29332576617782 470.57317016986667 274.30688678152046C545.8105119464512 299.32044779686316 687.639213304684 343.76093053728476 687.9992951650969 395.8618622977476C688.35937702551 447.9627940582104 547.1802531339799 497.5109149841312 472.3015630998491 524.3913592317424 "></path><path d="M671.9993038050135 396.0917596844721C672.3393811176256 445.2981952360203 539.0035418867362 492.0936427771677 468.2847790767239 517.4807290110227C397.5660162667116 542.8678152448779 403.4417682063016 542.0642115487742 332.54924231695486 517.9497736069768C261.6567164276082 493.8353356651794 128.339381453511 450.74243186096237 128.00065480785992 401.7314268903949C127.66192816220888 352.7204219198273 260.37090584109603 307.78894735800276 330.9233544178303 282.6969497482519C401.47580299456445 257.604952138501 395.5949185205218 257.66591962687846 466.65240797618503 281.28983836359095C537.709897431848 304.9137571003035 671.6592264924012 346.88532413292387 671.9993038050135 396.0917596844721C672.3393811176256 445.2981952360203 539.0035418867362 492.0936427771677 468.2847790767239 517.4807290110227 "></path><path d="M655.9993582212971 396.3216570711967C656.3194309861086 442.63359641383033 530.8268764158597 486.6763705702043 464.2680408299657 510.5700987903032C397.7092052440719 534.463827010402 403.23932471662715 533.7074941199514 336.5169474090068 511.0115525276716C269.7945701013863 488.31561093539176 144.319431302236 447.75758382554045 144.00062975338795 401.6295791473592C143.68182820453984 355.50157446917797 268.5843954317278 313.21312782275487 334.98669997453646 289.5971300724011C401.38900451734526 265.98113232204736 395.85405442412855 266.03851348757905 462.73169155887035 288.27278994566143C529.609328693612 310.5070664037438 655.6792854564856 350.00971772856303 655.9993582212971 396.3216570711967C656.3194309861086 442.63359641383033 530.8268764158597 486.6763705702043 464.2680408299657 510.5700987903032 "></path><path d="M639.9994278963699 396.55155445792116C640.2994961133807 439.96899759164023 522.6502262037723 481.2590983632408 460.25131784199675 503.6594685695835C397.8524094802211 526.0598387759262 403.03689648574175 525.3507766911289 340.48466775984764 504.0733314483664C277.9324390339535 482.7958862056041 160.29949640975002 444.77273579011853 160.000619957705 401.5277314043236C159.70174350565992 358.2827270185287 276.7979002811486 318.63730828750704 339.0500607900317 296.4973103965504C401.3022212989149 274.3573125055937 396.11320558652426 274.4111073482797 458.81099040034474 295.2557415277319C521.5087752141651 316.1003757071841 639.6993596793591 353.13411132420214 639.9994278963699 396.55155445792116C640.2994961133807 439.96899759164023 522.6502262037723 481.2590983632408 460.25131784199675 503.6594685695835 "></path><path d="M623.9994365362863 396.78145184464574C624.2795002054963 437.30439876945013 514.4735149565286 475.8418261562774 456.23453381887134 496.74883834886396C397.99555268121424 517.6558505414504 402.8344072197001 516.9940592623062 344.45232707553225 497.1351103690613C286.0702469313644 477.27616147581637 176.27950048210784 441.7878877546966 176.0005491268658 401.42588366128797C175.72159777162375 361.0638795678794 285.01134409541316 324.06148875225915 343.1133605703708 303.39749072069964C401.2153770453284 282.73349268914006 396.37229571376383 282.7837012089803 454.89022820666287 302.2386931098024C513.4081606995619 321.69368501062445 623.7193728670763 356.25850491984124 623.9994365362863 396.78145184464574C624.2795002054963 437.30439876945013 514.4735149565286 475.8418261562774 456.23453381887134 496.74883834886396 "></path><path d="M607.9994756937809 397.0113644901593C608.2595348151904 434.6398152060491 506.296834226863 470.424569208103 452.2177803133243 489.83822338693335C398.13872639978536 509.2518775657636 402.6319484712367 508.6373570922726 348.42001690879505 490.19690454854526C294.2080853463534 471.7564520048178 192.25953507204378 438.80305497806364 192.00050881360477 401.3240511770414C191.7414825551657 363.8450473760191 293.22481842725585 329.4856844758004 347.17669086828795 310.29768630363793C401.12856330932004 291.1096881314755 396.6314163585814 291.15631032847 450.9694965305591 309.22165995066194C505.30757670253684 327.2870095728539 607.7394165723715 359.38291377426947 607.9994756937809 397.0113644901593C608.2595348151904 434.6398152060491 506.296834226863 470.424569208103 452.2177803133243 489.83822338693335 "></path><path d="M591.9995148512755 397.2412618768838C592.2395694248842 431.97521638385905 498.1201534971975 465.0072970011395 448.201026807777 482.9275931662137C398.2819001183566 500.8478893312879 402.42948972277316 500.28063966344996 352.3877067420578 483.25868346924005C302.3459237613424 466.23672727503015 208.23956966197971 435.8182069426417 208.0004685003437 401.2222034340058C207.76136733870766 366.6261999253698 301.43829275909854 334.9098649405525 351.2400211662051 317.19786662778716C401.0417495733117 299.48586831502183 396.8905370033991 299.52890418917065 447.0487648544554 316.20461153273243C497.20699270551177 332.8803188762942 591.7594602776669 362.5073073699086 591.9995148512755 397.2412618768838C592.2395694248842 431.97521638385905 498.1201534971975 465.0072970011395 448.201026807777 482.9275931662137 "></path><path d="M575.9995540087702 397.47115926360834C576.219604034578 429.310617561669 489.94347276753194 459.5900247941761 444.18427330222994 476.016962945494C398.4250738369278 492.44390109681206 402.2270309743096 491.9239222346273 356.3553965753206 476.32046238993485C310.4837621763315 460.7170025452424 224.21960425191565 432.8333589072197 224.0004281870826 401.1203556909701C223.78125212224955 369.4073524747205 309.65176709094123 340.33404540530466 355.3033514641222 324.0980469519364C400.9549358373033 307.8620484985682 397.1496576482168 307.90149804987124 443.12803317835176 323.18756311480286C489.1064087084867 338.47362817973453 575.7795039829623 365.63170096554774 575.9995540087702 397.47115926360834C576.219604034578 429.310617561669 489.94347276753194 459.5900247941761 444.18427330222994 476.016962945494 "></path><path d="M559.9995931662647 397.7010566503329C560.199638644272 426.6460187394789 481.7667920378665 454.17275258721264 440.16751979668265 469.10633272477446C398.568247555499 484.0399128623362 402.0245722258461 483.56720480580464 360.3230864085833 469.38224131062975C318.62160059132054 455.19727781545475 240.1996388418516 429.84851087179777 240.00038787382158 401.0185079479345C239.8011369057915 372.1885050240712 317.8652414227839 345.7582258700568 359.36668176203943 330.9982272760857C400.86812210129483 316.23822868211454 397.4087782930344 316.2740919105719 439.207301502248 330.17051469687334C481.0058247114616 344.06693748317485 559.7995476882577 368.75609456118684 559.9995931662647 397.7010566503329C560.199638644272 426.6460187394789 481.7667920378665 454.17275258721264 440.16751979668265 469.10633272477446 "></path><path d="M543.9996323237594 397.9309235194793C544.1796732539659 423.9813893997107 473.5901113082009 448.75544986267107 436.1507662911355 462.19567198647667C398.7114212740702 475.63589411028227 401.8221134773826 475.21045685940385 364.29077624184606 462.4439897137464C326.75943900630955 449.677522568089 256.17967343178753 426.86363231879767 256.0003475605605 400.9166296873207C255.82102168933346 374.9696270558438 326.07871575462667 351.18237581723076 363.43001205995654 337.8983770826568C400.78130836528646 324.61437834808277 397.6678989378521 324.6466552536944 435.2865698261443 337.1534357613657C472.90524071443656 349.66021626903705 543.8195913935529 371.8804576392479 543.9996323237594 397.9309235194793C544.1796732539659 423.9813893997107 473.5901113082009 448.75544986267107 436.1507662911355 462.19567198647667 "></path><path d="M527.999671481254 398.1608361649929C528.1597078636598 421.3168058363097 465.4134305785353 443.3381929144967 432.1340127855883 455.2850570245461C398.8545949926414 467.23192113459555 401.61965472891904 466.85375468937025 368.25846607510886 455.50578389323033C334.8972774212986 444.1578130970904 272.1597080217235 423.87879954216476 272.0003072472994 400.81479720307414C271.8409064728754 377.7507948639835 334.29219008646936 356.606571540772 367.4933423578737 344.7985726655951C400.6944946292781 332.99057379041824 397.92701958266974 333.01926437318406 431.36583815004064 344.13640260222525C464.8046567174115 355.25354083126643 527.8396350988482 375.00486649367605 527.999671481254 398.1608361649929C528.1597078636598 421.3168058363097 465.4134305785353 443.3381929144967 432.1340127855883 455.2850570245461 "></path><path d="M511.9997258975377 398.3907335517174C512.1397577321427 418.6522070141196 457.2367651076588 437.92092070753324 428.1172745388302 448.3744268038265C398.99778397000165 458.8279329001197 401.4172112392446 458.49703726054764 372.22617116716066 448.5675628139252C343.03513109507674 438.6380883673027 288.1397578704485 420.89395150674284 288.00028219282746 400.71294946003854C287.86080651520643 380.5319474133342 342.5056796771011 362.0307520055241 371.5566879145799 351.6987529897443C400.60769615205874 341.3667539739646 398.18615548627645 341.3918582338847 427.44512173272597 351.11935418429573C456.7040879791755 360.84685013470676 511.8596940629327 378.12926008931515 511.9997258975377 398.3907335517174C512.1397577321427 418.6522070141196 457.2367651076588 437.92092070753324 428.1172745388302 448.3744268038265 "></path><path d="M495.99974979624324 398.62063093844193C496.11977708304755 415.98760819192955 449.06006911920423 432.50364850056974 424.10050577449397 441.46379658310684C399.14094242978376 450.42394466564394 401.21473723199205 450.140319831725 376.1938457416344 441.62934173462C351.1729542512767 433.1183636375151 304.11977720159535 417.90910347132086 304.0002266207773 400.6111017170029C303.88067603995927 383.31309996268493 350.71913875015474 367.4549324702763 375.620002953708 358.5989333138936C400.5208671572613 349.74293415751094 398.445260872305 349.7644520945853 423.52437479783316 358.1023057663662C448.60348872336135 366.4401594381471 495.8797225094389 381.2536536849543 495.99974979624324 398.62063093844193C496.11977708304755 415.98760819192955 449.06006911920423 432.50364850056974 424.10050577449397 441.46379658310684 "></path><path d="M479.99978895373783 398.85052832516647C480.09981169274147 413.32300936973945 440.8833883895387 427.08637629360635 420.0837522689468 434.55316636238723C399.284116148355 442.0199564311681 401.0122784835285 441.7836024029023 380.16153557489713 434.6911206553149C359.31079266626574 427.5986389077274 320.09981179153124 414.9242554358989 320.00018630751623 400.50925397396725C319.9005608235012 386.0942525120356 358.93261308199743 372.8791129350284 379.6833332516252 365.49911363804284C400.4340534212529 358.1191143410573 398.70438151712267 358.13704595528594 419.6036431217295 365.0852573484367C440.5029047263363 372.0334687415874 479.8997662147343 384.3780472805934 479.99978895373783 398.85052832516647C480.09981169274147 413.32300936973945 440.8833883895387 427.08637629360635 420.0837522689468 434.55316636238723 "></path><path d="M463.99984337002155 399.0804104531019C464.07986156122445 410.6583952887603 432.7067229186622 421.6690888278538 416.0670140221887 427.64252088287856C399.42730512571524 433.6159529379032 400.80983499385405 433.4268697152906 384.12924066694893 427.75288431722066C367.44864634004387 422.0788989191507 336.07986164025624 411.93939214168785 336.00016125304427 400.40739097214254C335.92046086583224 388.8753898025972 367.1461026726292 378.30327814099144 383.7466788083314 372.399278703403C400.3472549440336 366.4952792658146 398.9635174207294 366.5096245571975 415.68292670441485 372.0681936717181C432.4023359881003 377.6267627862387 463.91982517881866 387.50242561744346 463.99984337002155 399.0804104531019C464.07986156122445 410.6583952887603 432.7067229186622 421.6690888278538 416.0670140221887 427.64252088287856 "></path><path d="M447.99988252751615 399.3103078398264C448.0598961709183 407.99379646657025 424.5300421889966 416.25181662089034 412.0502605166415 420.7318906621589C399.5704788442864 425.21196470342744 400.6073762453905 425.07015228646793 388.0969305002117 420.81466323791545C375.58648475503287 416.559174189363 352.0598962301922 408.95454410626587 352.0001209397832 400.3055432291069C351.9403456493742 391.6565423519479 375.35957700447193 383.7274586057436 387.8100091062486 379.29945902755225C400.26044120802516 374.87145944936094 399.222638065547 374.8822184178981 411.7621950283111 379.05114525378855C424.3017519910752 383.22007208967904 447.939868884114 390.6268192130826 447.99988252751615 399.3103078398264C448.0598961709183 407.99379646657025 424.5300421889966 416.25181662089034 412.0502605166415 420.7318906621589 "></path><path d="M431.9999064262217 399.54020522655094C432.03991552182316 405.32919764438014 416.35334620054203 410.8345444139269 408.0334917523053 413.8212604414393C399.7136373040685 416.8079764689516 400.404902238138 416.7134348576453 392.0646050746854 413.8764421586103C383.72430791123287 411.03944945957534 368.03991556133906 405.96969607084395 368.00006536773304 400.2036954860713C367.96021517412703 394.43769490129864 383.57303607752556 389.1516390704957 391.8733241453766 386.19963935170153C400.1736122132277 383.2476396329073 399.48174345157565 383.25481227859876 407.84144809341836 386.03409683585903C416.2011527352611 388.81338139311936 431.95989733062027 393.75121280872173 431.9999064262217 399.54020522655094C432.03991552182316 405.32919764438014 416.35334620054203 410.8345444139269 408.0334917523053 413.8212604414393 "></path><path d="M415.9999608425054 399.77010261327547C416.0199653903061 402.6645988221901 408.1766807296656 405.41727220696345 404.0167535055472 406.9106302207196C399.8568262814288 408.40398823447583 400.2024587484635 408.35671742882266 396.03231016673726 406.93822107930515C391.86216158501094 405.51972472978764 384.01996541006406 402.984848035422 384.0000403132611 400.10184774303565C383.98011521645805 397.2188474506493 391.7865256681573 394.5758195352479 395.93666970208284 393.09981967585077C400.08681373600837 391.62381981645365 399.74087935518236 391.62740613929935 403.9207316761037 393.0170484179295C408.10058399702507 394.4066906965597 415.97995629470466 396.8756064043609 415.9999608425054 399.77010261327547C416.0199653903061 402.6645988221901 408.1766807296656 405.41727220696345 404.0167535055472 406.9106302207196 "></path></g></svg>